<svg width="34" height="34" viewBox="0 0 34 34" fill="none" xmlns="http://www.w3.org/2000/svg">
<path d="M21.7735 13.2877L13.2883 21.773C12.9983 22.0629 12.5175 22.0629 12.2276 21.773C11.9377 21.4831 11.9377 21.0023 12.2276 20.7123L20.7129 12.2271C21.0028 11.9372 21.4836 11.9372 21.7735 12.2271C22.0635 12.517 22.0635 12.9978 21.7735 13.2877Z" fill="#292D32"/>
<path d="M21.7735 21.7729C21.4836 22.0628 21.0028 22.0628 20.7129 21.7729L12.2276 13.2877C11.9377 12.9977 11.9377 12.5169 12.2276 12.227C12.5175 11.9371 12.9983 11.9371 13.2883 12.227L21.7735 20.7123C22.0635 21.0022 22.0635 21.483 21.7735 21.7729Z" fill="#292D32"/>
</svg>
